<?xml version="1.0" ?><svg viewBox="0 0 388.5 388.87" xmlns="http://www.w3.org/2000/svg"><defs><style>.cls-1{fill:#ebf0f9;}.cls-2{fill:#bbd2e5;opacity:0.5;}.cls-3{fill:#32caf8;}.cls-4{fill:#00a3eb;}.cls-5{fill:#fff;}.cls-6{fill:#426572;}.cls-7{fill:#6ae184;}.cls-8{fill:#a8ff8c;}</style></defs><title/><g data-name="Layer 2" id="Layer_2"><g data-name="Layer 1" id="Layer_1-2"><rect class="cls-1" height="376.87" rx="69.74" ry="69.74" width="376.5" x="7" y="6"/><path class="cls-2" d="M379.06,67.91c-8.35-8.94-18.74-14.26-30-14.26H26.27a37.94,37.94,0,0,0-21.62,7A70,70,0,0,1,72.75,6h237A70,70,0,0,1,379.06,67.91Z"/><rect class="cls-3" height="266.68" rx="51.33" ry="51.33" width="317.79" x="32.79" y="30.73"/><path class="cls-4" d="M350.57,75.61v30.6c0-24.68-16.88-44.88-37.5-44.88H70.29c-20.62,0-37.5,20.2-37.5,44.88V75.61c0-24.68,16.88-44.88,37.5-44.88H313.08C333.7,30.73,350.57,50.92,350.57,75.61Z"/><ellipse class="cls-5" cx="332.83" cy="203.16" rx="3.83" ry="21.98" transform="translate(-3.02 5.03) rotate(-0.86)"/><ellipse class="cls-5" cx="333.36" cy="246.19" rx="3.83" ry="10.99" transform="translate(-3.66 5.03) rotate(-0.86)"/><path class="cls-6" d="M299.24,302.54H84.12A57.4,57.4,0,0,1,26.79,245.2v-164A57.4,57.4,0,0,1,84.12,23.85H299.24a57.4,57.4,0,0,1,57.33,57.33v164A57.4,57.4,0,0,1,299.24,302.54ZM84.12,35.85A45.39,45.39,0,0,0,38.79,81.19v164a45.39,45.39,0,0,0,45.33,45.33H299.24a45.39,45.39,0,0,0,45.33-45.33v-164a45.39,45.39,0,0,0-45.33-45.33Z"/><path class="cls-7" d="M111.26,205l31.29-60.59c4-7.74,13.36-7.89,17.53-.27l33.13,60.59c4.52,8.27-.43,19.24-8.69,19.24H120.09C112,224,107,213.27,111.26,205Z"/><path class="cls-8" d="M184.52,220.47H120.09c-8.14,0-13.11-10.68-8.84-19v0c1.77,3.44,4.94,5.88,8.82,5.88h64.43c3.89,0,7-2.43,8.82-5.88C197.63,209.71,192.7,220.47,184.52,220.47Z"/><path class="cls-6" d="M312.76,388.87h-237A75.83,75.83,0,0,1,0,313.13V75.74A75.83,75.83,0,0,1,75.74,0h237A75.83,75.83,0,0,1,388.5,75.74V313.13A75.83,75.83,0,0,1,312.76,388.87ZM75.74,12A63.81,63.81,0,0,0,12,75.74V313.13a63.81,63.81,0,0,0,63.74,63.74h237a63.81,63.81,0,0,0,63.74-63.74V75.74A63.81,63.81,0,0,0,312.76,12Z"/><path class="cls-6" d="M184.52,229.09H120.09a15.71,15.71,0,0,1-13.51-8,20.31,20.31,0,0,1-.66-19.76h0l31.29-60.58c2.92-5.66,8.15-9.07,14-9.14s11.1,3.2,14.13,8.74L198.48,201a20.27,20.27,0,0,1-.34,20A15.91,15.91,0,0,1,184.52,229.09Zm-67.93-22.22a8.36,8.36,0,0,0,.25,8,4.08,4.08,0,0,0,3.26,2.2h64.42a4.11,4.11,0,0,0,3.3-2.27,8.45,8.45,0,0,0,.13-8.1l-33.13-60.58a4.14,4.14,0,0,0-3.42-2.5h0c-1.35,0-2.61,1-3.47,2.65Z"/><path class="cls-7" d="M154.29,196.14l44.45-86.06c5.68-11,19-11.2,24.9-.39l47.06,86.06c6.42,11.75-.62,27.34-12.35,27.34H166.84C155.28,223.09,148.21,207.91,154.29,196.14Z"/><path class="cls-8" d="M258.36,219.59H166.84c-11.38,0-18.41-14.72-12.82-26.41,2.47,5.19,7.09,8.92,12.82,8.92h91.52c5.73,0,10.35-3.73,12.81-8.92C276.75,204.81,269.78,219.59,258.36,219.59Z"/><path class="cls-6" d="M258.36,229.09H166.84c-6.91,0-13.12-3.68-17-10.1a26.3,26.3,0,0,1-.85-25.6h0l44.45-86.06c3.71-7.19,10.32-11.53,17.67-11.62h.22c7.22,0,13.79,4.14,17.6,11.11L276,192.87a26.25,26.25,0,0,1-.44,25.87C271.63,225.32,265.37,229.09,258.36,229.09Zm-98.74-30.2a14.43,14.43,0,0,0,.44,13.86c1,1.62,3.18,4.34,6.78,4.34h91.51c3.66,0,5.87-2.79,6.85-4.46a14.39,14.39,0,0,0,.23-14l-47.07-86.06c-1.71-3.13-4.31-4.92-7.16-4.87s-5.48,1.9-7.15,5.13l-44.45,86.06Z"/></g></g></svg>